<svg xmlns="http://www.w3.org/2000/svg" viewBox="0 0 500 500">
  <rect x="0  " y="0" width="100" height="100" stroke="#ffafbb" fill="#ffafbb"/>
  <rect x="100" y="0" width="100" height="100" stroke="#ffb5bf" fill="#ffb5bf"/>
  <rect x="200" y="0" width="100" height="100" stroke="#f2bcbc" fill="#f2bcbc"/>
  <rect x="300" y="0" width="100" height="100" stroke="#f8c1c4" fill="#f8c1c4"/>
  <rect x="400" y="0" width="100" height="100" stroke="#ffbac3" fill="#ffbac3"/>

  <rect x="0  " y="100" width="100" height="100" stroke="#ffb0bb" fill="#ffb0bb"/>
  <rect x="100" y="100" width="100" height="100" stroke="#96565f" fill="#96565f"/>
  <rect x="200" y="100" width="100" height="100" stroke="#895b5e" fill="#895b5e"/>
  <rect x="300" y="100" width="100" height="100" stroke="#8b5a5d" fill="#8b5a5d"/>
  <rect x="400" y="100" width="100" height="100" stroke="#ffe0e4" fill="#ffe0e4"/>

  <rect x="0  " y="200" width="100" height="100" stroke="#fdb2bd" fill="#fdb2bd"/>
  <rect x="100" y="200" width="100" height="100" stroke="#965961" fill="#965961"/>
  <rect x="200" y="200" width="100" height="100" stroke="#ffe0e5" fill="#ffe0e5"/>
  <rect x="300" y="200" width="100" height="100" stroke="#4d2e2d" fill="#4d2e2d"/>
  <rect x="400" y="200" width="100" height="100" stroke="#78575e" fill="#78575e"/>

  <rect x="0  " y="300" width="100" height="100" stroke="#ffb6bf" fill="#ffb6bf"/>
  <rect x="100" y="300" width="100" height="100" stroke="#864d58" fill="#864d58"/>
  <rect x="200" y="300" width="100" height="100" stroke="#efdacd" fill="#efdacd"/>
  <rect x="300" y="300" width="100" height="100" stroke="#f0dcd4" fill="#f0dcd4"/>
  <rect x="400" y="300" width="100" height="100" stroke="#714b50" fill="#714b50"/>

  <rect x="0  " y="400" width="100" height="100" stroke="#f19ca7" fill="#f19ca7"/>
  <rect x="100" y="400" width="100" height="100" stroke="#ffcbd1" fill="#ffcbd1"/>
  <rect x="200" y="400" width="100" height="100" stroke="#ca949b" fill="#ca949b"/>
  <rect x="300" y="400" width="100" height="100" stroke="#f9b3c0" fill="#f9b3c0"/>
  <rect x="400" y="400" width="100" height="100" stroke="#3d131c" fill="#3d131c"/>
</svg>
